<?xml version="1.0" standalone="no"?>
<!DOCTYPE svg PUBLIC "-//W3C//DTD SVG 20010904//EN"
 "http://www.w3.org/TR/2001/REC-SVG-20010904/DTD/svg10.dtd">
<svg version="1.0" xmlns="http://www.w3.org/2000/svg"
 width="1152.000000pt" height="1152.000000pt" viewBox="0 0 1152.000000 1152.000000"
 preserveAspectRatio="xMidYMid meet">
<metadata>
Created by potrace 1.14, written by Peter Selinger 2001-2017
</metadata>
<g transform="translate(0.000000,1152.000000) scale(0.100000,-0.100000)"
fill="#000000" stroke="none">
<path d="M5640 11497 c-159 -54 -283 -204 -343 -416 l-22 -76 -3 -2485 -2
-2485 -134 -27 c-73 -15 -140 -30 -149 -34 -15 -6 -17 161 -19 2192 l-3 2199
-23 73 c-55 178 -164 322 -290 384 -62 31 -74 33 -167 33 -94 0 -105 -2 -170
-34 -126 -62 -225 -187 -284 -359 l-26 -77 -3 -2436 -2 -2437 -77 -58 c-43
-32 -110 -86 -150 -121 -40 -35 -75 -63 -78 -63 -3 0 -5 732 -5 1628 l0 1627
-45 79 c-119 208 -242 337 -358 376 -52 16 -148 14 -216 -6 -165 -47 -306
-199 -341 -368 -7 -35 -9 -949 -7 -2951 3 -3196 -2 -2940 63 -3248 111 -525
378 -1041 738 -1425 265 -283 538 -489 871 -657 578 -292 1232 -390 1880 -280
419 71 800 222 1160 459 706 466 1186 1205 1325 2040 41 250 43 352 31 1478
-6 585 -14 1379 -18 1766 l-6 702 -42 0 c-63 0 -201 -26 -280 -53 -325 -111
-560 -365 -653 -706 l-26 -96 -7 -1255 c-3 -690 -10 -1271 -13 -1290 -4 -19
-17 -82 -28 -140 -82 -427 -330 -843 -673 -1129 -295 -245 -649 -403 -1024
-455 -148 -21 -419 -21 -564 0 -882 127 -1577 807 -1711 1674 -19 126 -31 290
-20 290 5 -1 65 -20 134 -43 l125 -42 12 -105 c106 -872 852 -1528 1740 -1530
574 -1 1103 270 1440 738 78 108 193 334 232 456 42 131 68 263 80 401 7 81
11 1265 11 3613 0 3148 -2 3500 -16 3570 -35 169 -126 319 -242 399 -84 57
-154 77 -253 71 -187 -11 -338 -150 -421 -389 l-33 -94 -3 -2199 -2 -2198 -23
5 c-12 2 -75 15 -139 28 l-118 23 -2 2486 -3 2485 -22 76 c-61 215 -191 370
-350 419 -84 26 -152 25 -233 -3z"/>
</g>
</svg>
