<svg width="119" height="136" viewBox="0 0 119 136" fill="none" xmlns="http://www.w3.org/2000/svg">
<g clip-path="url(#clip0_14_103)">
<path d="M57.3216 135.988C41.3279 135.988 24.952 134.555 8.6717 131.736C3.64307 130.864 0 126.528 0 121.44V111C0 108.384 0.967504 105.924 2.67557 104.025C3.45196 103.057 4.33585 102.257 5.29141 101.588L9.12559 51.218C8.54031 50.5491 8.0267 49.8085 7.63253 49.0083C6.03197 48.2438 4.63446 47.0852 3.58335 45.5921C1.97084 43.3107 1.34973 40.5396 1.82751 37.7924C1.99473 36.8129 2.29334 35.8813 2.72334 35.0093C1.87529 33.1221 1.62445 31.0198 1.99473 28.9296C2.68751 25.0476 5.44669 22.0018 9.01809 20.8312C9.94976 18.1915 11.9445 15.934 14.7037 14.7276C16.0415 14.1542 17.427 13.8676 18.8604 13.8676C20.4729 13.8676 22.0137 14.2378 23.4112 14.9067C31.4857 6.61725 42.3074 1.37362 53.9891 0.23889C55.6016 0.0836115 57.25 0 58.8625 0C70.6875 0 82.1423 4.30002 91.1365 12.1237C101.468 21.1059 107.477 33.576 108.05 47.2524L110.367 101.851C111.765 102.902 113.055 104.299 113.939 106.127C114.106 106.437 114.285 106.808 114.44 107.214L117.653 115.527C118.68 118.155 118.573 121.153 117.367 123.733C116.172 126.289 113.95 128.272 111.287 129.192C101.54 132.488 82.2617 136 57.3097 136L57.3216 135.988Z" fill="white"/>
<path d="M57.5552 116.71C83.4913 116.71 104.517 114.311 104.517 111.352C104.517 108.393 83.4913 105.994 57.5552 105.994C31.6191 105.994 10.5938 108.393 10.5938 111.352C10.5938 114.311 31.6191 116.71 57.5552 116.71Z" stroke="#171717" stroke-width="1.79167" stroke-linecap="round"/>
<path d="M10.3535 121.925V111.482C12.1386 113.625 24.5983 117.641 60.1567 116.57C95.7151 115.499 104.605 112.732 104.605 111.482L107.818 119.783C95.4116 123.978 58.5501 130.279 10.3535 121.925Z" stroke="#171717" stroke-width="1.79167" stroke-linecap="round" stroke-linejoin="round"/>
<path d="M14.856 112.792L19.8675 46.8897C21.3009 28.0403 36.0802 12.9514 54.8958 11.1274C77.0982 8.97513 96.5578 25.899 97.5061 48.1853L100.255 112.792" stroke="#171717" stroke-width="1.79167" stroke-linecap="round" stroke-linejoin="round"/>
<path d="M46.0303 48.8595C46.4171 48.3245 47.0358 48 47.6889 48H68.314C68.9672 48 69.5859 48.3157 69.9726 48.8595L79.5977 62.1899C80.1821 62.9967 80.1219 64.1105 79.4688 64.856L59.5312 87.3072C59.1445 87.7457 58.5859 88 58.0015 88C57.4171 88 56.8671 87.7457 56.4718 87.3072L36.5342 64.856C35.8725 64.1105 35.8209 62.9967 36.4053 62.1899L46.0303 48.8595ZM49.3389 52.3499C49.0553 52.5692 48.978 52.9638 49.1585 53.2708L54.0913 61.6549L41.4412 62.7336C41.0889 62.7599 40.8139 63.0669 40.8139 63.4352C40.8139 63.8036 41.0889 64.1017 41.4412 64.1368L57.9413 65.54C57.9757 65.54 58.0187 65.54 58.053 65.54L74.5531 64.1368C74.9055 64.1105 75.1805 63.8036 75.1805 63.4352C75.1805 63.0669 74.9055 62.7687 74.5531 62.7336L61.9117 61.6637L66.8445 53.2795C67.025 52.9726 66.9476 52.5692 66.664 52.3587C66.3804 52.1482 65.9851 52.1833 65.7445 52.4464L58.0015 60.9971L50.2585 52.4376C50.0179 52.1745 49.6225 52.1394 49.3389 52.3499Z" fill="black"/>
</g>
<defs>
<clipPath id="clip0_14_103">
<rect width="119" height="136" fill="white"/>
</clipPath>
</defs>
</svg>
