<svg width="19" height="36" viewBox="0 0 19 36" fill="none" xmlns="http://www.w3.org/2000/svg">
<path d="M16.0039 23.9905V23.9894V18.8537C16.0039 17.343 17.1656 16.1032 18.6458 15.9779L18.6477 16.1687L18.6599 17.3545C18.67 18.3374 18.6834 19.6519 18.6968 20.978C18.7237 23.6319 18.7503 26.3277 18.75 26.5113V26.5118C18.75 31.6131 14.6089 35.75 9.50017 35.75C4.39139 35.75 0.25 31.6131 0.25 26.5118V9.40971C0.25 8.70913 0.819119 8.14039 1.52183 8.14039C1.65542 8.14039 1.80242 8.2012 1.96034 8.32471C2.11714 8.44735 2.26544 8.61704 2.39581 8.79682C2.52519 8.97522 2.63088 9.1551 2.70449 9.29123C2.74113 9.359 2.76945 9.41522 2.78841 9.45407C2.79038 9.4581 2.79224 9.46194 2.79401 9.46559V19.551V20.1223L3.21367 19.7346C3.50389 19.4664 3.81047 19.216 4.13341 18.9854L4.23811 18.9106V18.7819V4.06329C4.23811 3.5576 4.3936 3.10926 4.63319 2.79283C4.87267 2.47655 5.18506 2.30321 5.50994 2.30321C5.83482 2.30321 6.14721 2.47655 6.38668 2.79283C6.62627 3.10926 6.78176 3.5576 6.78176 4.06329V17.3468V17.6731L7.09686 17.5881C7.3975 17.5071 7.70518 17.4416 8.01861 17.391L8.2287 17.357V17.1442V2.01043C8.2287 1.50432 8.38414 1.0559 8.62363 0.739495C8.86299 0.42326 9.17528 0.25 9.50017 0.25C9.82467 0.25 10.1372 0.423309 10.3769 0.739709C10.6166 1.05622 10.7724 1.50464 10.7724 2.01043V17.1442V17.357L10.9824 17.391C11.2725 17.4379 11.5585 17.4974 11.8383 17.5703L12.1513 17.6518V17.3284V4.06329C12.1513 3.55757 12.3067 3.10922 12.5463 2.7928C12.7856 2.47653 13.0979 2.30321 13.4228 2.30321C13.7475 2.30321 14.0599 2.47653 14.2994 2.79284C14.5391 3.10929 14.6946 3.55763 14.6946 4.06329V23.8685V23.8699L14.6759 25.5519H14.6759V25.5547C14.6759 28.4018 12.3294 30.7243 9.43858 30.7243C6.64644 30.7243 4.36121 28.5564 4.20976 25.8423L4.20021 25.6712L4.03717 25.6184L3.2074 25.3497L2.87856 25.2432L2.88038 25.5889C2.89918 29.155 5.83682 32.0449 9.43858 32.0449C13.0102 32.0449 15.9275 29.2043 15.9964 25.6812H15.9964L15.9964 25.6774L16.0039 23.9905Z" fill="white" stroke="black" stroke-width="0.5"/>
</svg>
