<svg width="162" height="167" viewBox="0 0 162 167" fill="none" xmlns="http://www.w3.org/2000/svg">
<g clip-path="url(#clip0_14_29)">
<path d="M54.2777 166.18C52.1977 166.18 50.1877 165.54 48.4777 164.34C45.0477 161.92 43.4777 157.57 44.5677 153.51L48.4577 139.08C34.2777 136.45 22.4677 129.73 14.0077 119.4C5.7977 109.36 0.857703 95.94 0.107703 81.61C-0.802297 64.48 4.0877 46.44 13.5077 32.14C24.0377 16.13 39.6177 5.55 57.3877 2.33C65.9277 0.78 74.2477 0 82.0977 0C109.728 0 131.868 9.5 146.138 27.47C163.178 48.93 166.448 80.74 154.458 108.51C142.798 135.51 116.808 140.28 102.348 140.73C96.6577 140.91 92.0977 142.15 88.7977 144.44L59.9977 164.39C58.2977 165.56 56.3277 166.18 54.2777 166.18Z" fill="white"/>
<path d="M58.9926 10.7891C140.551 -3.98201 166.194 58.2263 146.193 104.542C136.593 126.775 114.909 130.939 102.065 131.335C95.5769 131.535 89.0068 132.944 83.6714 136.64L54.8758 156.589C54.0696 157.147 53.0048 156.397 53.26 155.45L59.1909 133.436C59.543 132.129 58.5339 130.833 57.1839 130.733C-12.7897 125.571 -1.61985 21.7666 58.9926 10.7891Z" stroke="#171717" stroke-width="2" stroke-linecap="round" stroke-linejoin="round"/>
<path d="M63.3958 66.9167C62.6618 66.9167 61.9574 67.0286 61.2563 67.1306C61.4834 66.367 61.7171 65.5901 62.0923 64.8923C62.4676 63.8785 63.0535 62.9996 63.6361 62.1141C64.1233 61.1562 64.9824 60.5078 65.6144 59.6882C66.276 58.8916 67.178 58.3616 67.8923 57.7C68.5934 57.0087 69.5118 56.6631 70.2425 56.176C71.0062 55.7382 71.6711 55.2543 72.3821 55.0239L74.1563 54.2931L75.7165 53.6447L74.1201 47.2654L72.155 47.7394C71.5263 47.8974 70.7593 48.0817 69.887 48.3023C68.995 48.4669 68.0437 48.9178 66.9838 49.3293C65.937 49.7967 64.7257 50.1127 63.5999 50.8632C62.4676 51.5808 61.1608 52.1799 60.0087 53.141C58.8928 54.1318 57.5465 54.991 56.5525 56.2517C55.4662 57.4301 54.3931 58.6677 53.5603 60.0766C52.5959 61.4196 51.9408 62.8942 51.2496 64.3525C50.6242 65.8107 50.1205 67.3018 49.7091 68.7501C48.929 71.6534 48.58 74.4118 48.4451 76.7719C48.3332 79.1353 48.399 81.1005 48.5373 82.5225C48.5866 83.194 48.6788 83.8457 48.7446 84.2967L48.8269 84.8497L48.9125 84.8299C49.498 87.5647 50.8457 90.0779 52.7998 92.0788C54.754 94.0796 57.2346 95.4863 59.9549 96.1362C62.6751 96.7861 65.5237 96.6526 68.1712 95.7511C70.8188 94.8496 73.157 93.2171 74.9154 91.0422C76.6738 88.8674 77.7806 86.2391 78.1077 83.4616C78.4348 80.684 77.9688 77.8705 76.7637 75.3467C75.5586 72.8229 73.6637 70.6918 71.298 69.1999C68.9323 67.7081 66.1926 66.9165 63.3958 66.9167ZM99.6042 66.9167C98.8701 66.9167 98.1657 67.0286 97.4646 67.1306C97.6917 66.367 97.9254 65.5901 98.3007 64.8923C98.6759 63.8785 99.2618 62.9996 99.8445 62.1141C100.332 61.1562 101.191 60.5078 101.823 59.6882C102.484 58.8916 103.386 58.3616 104.101 57.7C104.802 57.0087 105.72 56.6631 106.451 56.176C107.215 55.7382 107.879 55.2543 108.59 55.0239L110.365 54.2931L111.925 53.6447L110.328 47.2654L108.363 47.7394C107.735 47.8974 106.968 48.0817 106.095 48.3023C105.203 48.4669 104.252 48.9178 103.192 49.3293C102.149 49.8 100.934 50.1127 99.8083 50.8665C98.6759 51.5841 97.3691 52.1832 96.217 53.1443C95.1012 54.1351 93.7549 54.9942 92.7608 56.2517C91.6745 57.4301 90.6015 58.6677 89.7687 60.0766C88.8042 61.4196 88.1492 62.8942 87.4579 64.3525C86.8325 65.8107 86.3289 67.3018 85.9174 68.7501C85.1373 71.6534 84.7884 74.4118 84.6534 76.7719C84.5415 79.1353 84.6073 81.1005 84.7456 82.5225C84.795 83.194 84.8871 83.8457 84.953 84.2967L85.0353 84.8497L85.1208 84.8299C85.7063 87.5647 87.054 90.0779 89.0082 92.0788C90.9623 94.0796 93.443 95.4863 96.1632 96.1362C98.8834 96.7861 101.732 96.6526 104.38 95.7511C107.027 94.8496 109.365 93.2171 111.124 91.0422C112.882 88.8674 113.989 86.2391 114.316 83.4616C114.643 80.684 114.177 77.8705 112.972 75.3467C111.767 72.8229 109.872 70.6918 107.506 69.1999C105.141 67.7081 102.401 66.9165 99.6042 66.9167Z" fill="black"/>
</g>
<defs>
<clipPath id="clip0_14_29">
<rect width="162" height="167" fill="white"/>
</clipPath>
</defs>
</svg>
